<?xml version="1.0" encoding="UTF-8" standalone="no"?>
<!-- Created with Inkscape (http://www.inkscape.org/) -->

<svg
   width="210mm"
   height="297mm"
   viewBox="0 0 210 297"
   version="1.1"
   id="svg670"
   inkscape:version="1.2 (dc2aeda, 2022-05-15)"
   sodipodi:docname="bg.svg"
   xmlns:inkscape="http://www.inkscape.org/namespaces/inkscape"
   xmlns:sodipodi="http://sodipodi.sourceforge.net/DTD/sodipodi-0.dtd"
   xmlns="http://www.w3.org/2000/svg"
   xmlns:svg="http://www.w3.org/2000/svg">
  <sodipodi:namedview
     id="namedview672"
     pagecolor="#ffffff"
     bordercolor="#000000"
     borderopacity="0.25"
     inkscape:showpageshadow="2"
     inkscape:pageopacity="0.0"
     inkscape:pagecheckerboard="0"
     inkscape:deskcolor="#d1d1d1"
     inkscape:document-units="mm"
     showgrid="false"
     inkscape:zoom="0.17243726"
     inkscape:cx="463.93685"
     inkscape:cy="492.93291"
     inkscape:window-width="1309"
     inkscape:window-height="456"
     inkscape:window-x="0"
     inkscape:window-y="25"
     inkscape:window-maximized="0"
     inkscape:current-layer="layer1" />
  <defs
     id="defs667">
    <inkscape:path-effect
       effect="bspline"
       id="path-effect684"
       is_visible="true"
       lpeversion="1"
       weight="33.333333"
       steps="2"
       helper_size="0"
       apply_no_weight="true"
       apply_with_weight="true"
       only_selected="false" />
    <inkscape:path-effect
       effect="bspline"
       id="path-effect680"
       is_visible="true"
       lpeversion="1"
       weight="33.333333"
       steps="2"
       helper_size="0"
       apply_no_weight="true"
       apply_with_weight="true"
       only_selected="false" />
    <inkscape:path-effect
       effect="bspline"
       id="path-effect676"
       is_visible="true"
       lpeversion="1"
       weight="33.333333"
       steps="2"
       helper_size="0"
       apply_no_weight="true"
       apply_with_weight="true"
       only_selected="false" />
  </defs>
  <g
     inkscape:label="Layer 1"
     inkscape:groupmode="layer"
     id="layer1">
    <path
       style="fill:#ff00ff;stroke-width:0.264583"
       d="M 22.615539,0.46324266 C 28.917212,4.839383 35.218666,9.2153713 40.014787,14.414194 c 4.796122,5.198824 8.086825,11.220079 12.562055,14.639047 4.47523,3.418968 10.134751,4.235793 13.985519,3.173943 3.850769,-1.061851 5.892856,-4.00247 8.874403,-7.847589 2.981547,-3.845119 6.902358,-8.594455 10.543409,-9.802235 3.641051,-1.20778 7.00176,1.126035 13.093249,5.35622 6.091488,4.230185 14.913328,10.356443 20.636988,11.529198 5.72366,1.172754 8.3492,-2.608043 11.05651,-6.954912 2.70731,-4.34687 5.49622,-9.259573 12.27632,-11.401029 6.7801,-2.141455 17.55069,-1.511348 24.40653,-0.175131 6.85584,1.336217 9.79647,3.378305 14.76171,3.401544 4.96525,0.02324 11.95505,-1.972198 16.76278,-4.860307 4.80773,-2.8881084 7.43327,-6.6688979 10.05902,-10.4499922"
       id="path674"
       inkscape:path-effect="#path-effect676"
       inkscape:original-d="M 22.615539,0.46324266 C 28.917058,4.8396044 35.218512,9.2155926 41.519904,13.59121 c 3.290898,6.021866 6.5816,12.043122 9.872305,18.064124 5.659813,0.817224 11.319334,1.634048 16.978899,2.450525 2.04224,-2.940374 4.084327,-5.880993 6.126387,-8.82204 3.921037,-4.74916 7.841847,-9.498497 11.76267,-14.248297 3.360908,2.334275 6.721617,4.66809 10.082326,7.001583 8.822269,6.126877 17.644109,12.253139 26.466079,18.379159 2.62571,-3.780583 5.25125,-7.56138 7.87678,-11.342618 2.78908,-4.912535 5.57799,-9.825237 8.36689,-14.738402 10.77108,0.630502 21.54167,1.260607 32.31242,1.890361 2.9408,2.04254 5.88142,4.08463 8.82204,6.126385 6.99013,-1.995138 13.97993,-3.990576 20.96979,-5.986421 2.62572,-3.7805821 5.25125,-7.5613777 7.87679,-11.3426182" />
    <path
       style="fill:#800080;stroke-width:0.181676"
       d="m 152.80959,253.11994 c -3.92816,1.40435 -13.28027,-0.18149 -19.47,1.67033 -6.18973,1.85181 -9.21674,7.14114 -10.10323,11.25728 -0.88649,4.11613 0.36748,7.05863 4.41663,6.3801 4.04915,-0.67853 10.89311,-4.97774 16.25633,-5.67051 5.36323,-0.69278 9.24536,2.22062 8.9902,6.04801 -0.25515,3.82738 -4.64737,8.56871 -8.28291,11.98778 -3.63554,3.41908 -6.51425,5.51574 -7.25697,8.199 -0.74272,2.68326 0.6506,5.95273 4.80204,6.39936 4.15143,0.44663 11.06057,-1.92929 14.87242,-5.81958 3.81186,-3.89029 4.52645,-9.29479 6.96885,-11.97329 2.44239,-2.6785 6.61215,-2.63082 9.74202,-0.15471 3.12986,2.47611 5.21983,7.38029 8.0897,8.80313 2.86986,1.42284 6.51937,-0.63542 7.64745,-3.29925 1.12808,-2.66383 -0.26523,-5.93328 -2.09512,-9.7846 -1.82989,-3.85133 -4.09627,-8.28429 -3.49281,-11.29448 0.60345,-3.0102 4.07655,-4.59725 7.03455,-3.40972 2.958,1.18753 5.40078,5.14927 9.02739,5.24973 3.62661,0.10046 8.43682,-3.66003 8.92384,-9.15593 0.48703,-5.49589 -3.34905,-12.72707 -6.77619,-15.45797 -3.42714,-2.7309 -6.44518,-0.96119 -8.78074,1.08261 -2.33555,2.0438 -3.98839,4.36152 -5.58116,3.72223 -1.59276,-0.63928 -3.1254,-4.23567 -2.32706,-8.11621 0.79834,-3.88054 3.9276,-8.04475 4.2153,-10.91046 0.2877,-2.8657 -2.2663,-4.43294 -7.22559,-4.11999 -4.95929,0.31295 -12.3235,2.50621 -15.16972,5.56473 -2.84622,3.05851 -1.17425,6.98185 0.49778,10.90531 1.67202,3.92346 3.34399,7.8468 2.91704,10.38552 -0.42695,2.53873 -2.95285,3.69294 -6.11989,2.01522 -3.16705,-1.67771 -6.97504,-6.18746 -8.1313,-6.24501 -1.15626,-0.0575 0.33931,4.33702 -3.58885,5.74137 z"
       id="path682"
       inkscape:path-effect="#path-effect684"
       inkscape:original-d="m 158.23329,256.11008 c -9.35187,-1.58574 -18.70398,-3.17157 -28.05632,-4.75751 -3.02689,5.28964 -6.0539,10.57897 -9.08121,15.86831 1.25427,2.94273 2.50825,5.88523 3.76202,8.8277 6.84446,-4.29929 13.68843,-8.59849 20.53229,-12.89788 3.88252,2.91361 7.76465,5.82701 11.64663,8.74038 -4.39216,4.74161 -8.78437,9.48294 -13.17691,14.22426 -2.87859,2.09684 -5.7573,4.1935 -8.6363,6.29011 1.3936,3.26967 2.78692,6.53914 4.18002,9.80856 6.90965,-2.37594 13.81879,-4.75186 20.72784,-7.12793 0.71485,-5.40463 1.42945,-10.80913 2.14382,-16.21384 4.17017,0.0478 8.33993,0.0955 12.50954,0.14304 2.09029,4.90447 4.18025,9.80865 6.27003,14.71283 3.64989,-2.05825 7.2994,-4.11652 10.94876,-6.17493 -1.39314,-3.26949 -2.78645,-6.53894 -4.18002,-9.80856 -2.26623,-4.43303 -4.5326,-8.86599 -6.79925,-13.29913 3.47348,-1.58702 6.94659,-3.17406 10.41953,-4.76123 2.44311,3.96198 4.88589,7.92372 7.32848,11.88544 4.81064,-3.76055 9.62084,-7.52104 14.43091,-11.2817 -3.836,-7.23138 -7.67209,-14.46256 -11.50849,-21.69399 -3.01792,1.76988 -6.03596,3.5396 -9.05431,5.30926 -1.65266,2.3179 -3.3055,4.63562 -4.9586,6.95329 -1.53247,-3.59645 -3.06511,-7.19284 -4.59802,-10.78941 3.12963,-4.16429 6.25889,-8.3285 9.38799,-12.4929 -2.55388,-1.56719 -5.10788,-3.13443 -7.66217,-4.70179 -7.36427,2.19344 -14.72848,4.3867 -22.09307,6.57991 1.67228,3.9236 3.34425,7.84694 5.01602,11.77027 1.67227,3.92359 3.34425,7.84693 5.01602,11.77026 -2.52576,1.15435 -5.05166,2.30857 -7.57784,3.46271 -3.8079,-4.50982 -7.61589,-9.01956 -11.42418,-13.52948 1.49586,4.39483 2.99143,8.7894 4.48679,13.18395 z" />
  </g>
</svg>
