<?xml version="1.0" encoding="UTF-8" standalone="no"?>
<!-- Created with Inkscape (http://www.inkscape.org/) -->

<svg
   width="287.31799mm"
   height="135.20667mm"
   viewBox="0 0 287.318 135.20667"
   version="1.1"
   id="svg670"
   inkscape:version="1.2 (dc2aeda, 2022-05-15)"
   sodipodi:docname="newbg.svg"
   xmlns:inkscape="http://www.inkscape.org/namespaces/inkscape"
   xmlns:sodipodi="http://sodipodi.sourceforge.net/DTD/sodipodi-0.dtd"
   xmlns="http://www.w3.org/2000/svg"
   xmlns:svg="http://www.w3.org/2000/svg">
  <sodipodi:namedview
     id="namedview672"
     pagecolor="#ffffff"
     bordercolor="#000000"
     borderopacity="0.25"
     inkscape:showpageshadow="2"
     inkscape:pageopacity="0.0"
     inkscape:pagecheckerboard="0"
     inkscape:deskcolor="#d1d1d1"
     inkscape:document-units="mm"
     showgrid="false"
     inkscape:zoom="0.17243726"
     inkscape:cx="835.08634"
     inkscape:cy="492.93291"
     inkscape:window-width="1309"
     inkscape:window-height="456"
     inkscape:window-x="0"
     inkscape:window-y="25"
     inkscape:window-maximized="0"
     inkscape:current-layer="layer1" />
  <defs
     id="defs667">
    <inkscape:path-effect
       effect="bspline"
       id="path-effect684"
       is_visible="true"
       lpeversion="1"
       weight="33.333333"
       steps="2"
       helper_size="0"
       apply_no_weight="true"
       apply_with_weight="true"
       only_selected="false" />
    <inkscape:path-effect
       effect="bspline"
       id="path-effect680"
       is_visible="true"
       lpeversion="1"
       weight="33.333333"
       steps="2"
       helper_size="0"
       apply_no_weight="true"
       apply_with_weight="true"
       only_selected="false" />
    <inkscape:path-effect
       effect="bspline"
       id="path-effect676"
       is_visible="true"
       lpeversion="1"
       weight="33.333333"
       steps="2"
       helper_size="0"
       apply_no_weight="true"
       apply_with_weight="true"
       only_selected="false" />
    <inkscape:path-effect
       effect="bspline"
       id="path-effect684-8"
       is_visible="true"
       lpeversion="1"
       weight="33.333333"
       steps="2"
       helper_size="0"
       apply_no_weight="true"
       apply_with_weight="true"
       only_selected="false" />
    <inkscape:path-effect
       effect="bspline"
       id="path-effect676-2"
       is_visible="true"
       lpeversion="1"
       weight="33.333333"
       steps="2"
       helper_size="0"
       apply_no_weight="true"
       apply_with_weight="true"
       only_selected="false" />
    <inkscape:path-effect
       effect="bspline"
       id="path-effect676-2-5"
       is_visible="true"
       lpeversion="1"
       weight="33.333333"
       steps="2"
       helper_size="0"
       apply_no_weight="true"
       apply_with_weight="true"
       only_selected="false" />
    <inkscape:path-effect
       effect="bspline"
       id="path-effect676-2-2"
       is_visible="true"
       lpeversion="1"
       weight="33.333333"
       steps="2"
       helper_size="0"
       apply_no_weight="true"
       apply_with_weight="true"
       only_selected="false" />
    <inkscape:path-effect
       effect="bspline"
       id="path-effect676-2-21"
       is_visible="true"
       lpeversion="1"
       weight="33.333333"
       steps="2"
       helper_size="0"
       apply_no_weight="true"
       apply_with_weight="true"
       only_selected="false" />
  </defs>
  <g
     inkscape:label="Layer 1"
     inkscape:groupmode="layer"
     id="layer1"
     transform="translate(97.812263,-0.46324266)">
    <path
       style="fill:#ff00ff;stroke-width:0.264583"
       d="m 5.7374196,-5.8867576 c 6.3016734,4.37614 12.6031274,8.7521278 17.3992484,13.9509496 4.796121,5.198822 8.086825,11.220077 12.562055,14.639045 4.47523,3.418968 10.134751,4.235793 13.985519,3.173943 3.850769,-1.061851 5.892856,-4.00247 8.874403,-7.847588 2.981547,-3.845119 6.902358,-8.5944547 10.543409,-9.8022344 3.641051,-1.2077797 7.00176,1.1260341 13.093249,5.3562184 6.091489,4.230185 14.913331,10.356444 20.636987,11.529198 5.72366,1.172754 8.3492,-2.608043 11.05651,-6.954912 2.70731,-4.34687 5.49622,-9.2595717 12.27632,-11.4010265 6.7801,-2.1414547 17.55069,-1.5113475 24.40653,-0.175131 6.85584,1.3362165 9.79647,3.3783034 14.76171,3.4015422 4.96525,0.023239 11.95505,-1.972197 16.76278,-4.8603049 4.80773,-2.8881079 7.43327,-6.6688971 10.05902,-10.4499913"
       id="path674"
       inkscape:path-effect="#path-effect676"
       inkscape:original-d="m 5.7374196,-5.8867576 c 6.3015194,4.3763618 12.6029734,8.7523498 18.9043654,13.1279654 3.290898,6.0218642 6.5816,12.0431202 9.872305,18.0641222 5.659813,0.817224 11.319334,1.634048 16.978899,2.450525 2.04224,-2.940374 4.084327,-5.880993 6.126387,-8.82204 3.921037,-4.74916 7.841847,-9.4984964 11.76267,-14.2482937 3.360908,2.3342735 6.721617,4.6680873 10.082326,7.0015797 8.822269,6.126877 17.644109,12.253139 26.466078,18.379159 2.62571,-3.780583 5.25125,-7.56138 7.87678,-11.342618 2.78908,-4.912535 5.57799,-9.8252361 8.36689,-14.7383984 10.77108,0.6305017 21.54167,1.2606061 32.31242,1.8903598 2.9408,2.0425388 5.88142,4.0846279 8.82204,6.1263826 6.99013,-1.995138 13.97993,-3.9905748 20.96979,-5.9864186 2.62572,-3.7805809 5.25125,-7.5613764 7.87679,-11.3426169" />
    <path
       style="fill:#800080;stroke-width:0.264583"
       d="m 285.86837,142.01995 c -6.30687,-4.36865 -12.61352,-8.73715 -17.41582,-13.93027 -4.80229,-5.19311 -8.10015,-11.21046 -12.57944,-14.62411 -4.47929,-3.41365 -10.13978,-4.22375 -13.98928,-3.15732 -3.84951,1.06643 -5.8881,4.00947 -8.86507,7.85813 -2.97698,3.84866 -6.89214,8.60265 -10.53176,9.81476 -3.63961,1.21211 -7.00309,-1.11771 -13.0996,-5.34066 -6.09652,-4.22295 -14.92563,-10.33871 -20.65068,-11.50466 -5.72505,-1.16595 -8.34609,2.61796 -11.04823,6.96804 -2.70215,4.35009 -5.48521,9.2661 -12.26277,11.41561 -6.77755,2.14951 -17.54888,1.53221 -24.40631,0.20414 -6.85742,-1.32807 -9.80046,-3.36666 -14.76573,-3.384 -4.96528,-0.0173 -11.95271,1.9864 -16.757,4.88022 -4.80429,2.89381 -7.42533,6.67773 -10.046584,10.46194"
       id="path674-2"
       inkscape:path-effect="#path-effect676-2"
       inkscape:original-d="m 285.86837,142.01995 c -6.30672,-4.36887 -12.61337,-8.73737 -18.91996,-13.1055 -3.29805,-6.01794 -6.5959,-12.03529 -9.89376,-18.05238 -5.66078,-0.8105 -11.32127,-1.62059 -16.9818,-2.43035 -2.03874,2.94281 -4.07734,5.88585 -6.1159,8.82932 -3.91539,4.75381 -7.83055,9.50781 -11.74573,14.26227 -3.36368,-2.33028 -6.72716,-4.6601 -10.09064,-6.9896 -8.82955,-6.11639 -17.65866,-12.23216 -26.4879,-18.3477 -2.62122,3.78371 -5.24227,7.56762 -7.8633,11.35198 -2.78324,4.91584 -5.56631,9.83185 -8.34937,14.74833 -10.77182,-0.6177 -21.54315,-1.23501 -32.31464,-1.85196 -2.94323,-2.03904 -5.88627,-4.07763 -8.82932,-6.1159 -6.98775,2.00345 -13.97518,4.00719 -20.96266,6.01134 -2.62122,3.78369 -5.24226,7.56761 -7.863294,11.35197" />
    <path
       style="fill:#800080;stroke-width:0.264583"
       d="M 26.693475,140.9615 C 20.386604,136.59285 14.079953,132.22435 9.2776593,127.03123 4.475366,121.83812 1.1775104,115.82077 -3.3017772,112.40712 c -4.4792876,-3.41365 -10.1397748,-4.22375 -13.9892798,-3.15732 -3.849505,1.06643 -5.888096,4.00947 -8.865069,7.85813 -2.976972,3.84866 -6.892138,8.60265 -10.531752,9.81476 -3.639615,1.21211 -7.003095,-1.11771 -13.09961,-5.34066 -6.096516,-4.22294 -14.925632,-10.33871 -20.650683,-11.50466 -5.72505,-1.16595 -8.346095,2.61796 -11.048237,6.96804 -2.702143,4.35009 -5.48521,9.2661 -12.262762,11.41561 -6.77755,2.14952 -17.54894,1.53221 -24.40641,0.20414 -6.85746,-1.32807 -9.80052,-3.36666 -14.76582,-3.384 -4.9653,-0.0173 -11.95277,1.9864 -16.75709,4.88022 -4.80432,2.89381 -7.42538,6.67772 -10.04665,10.46194"
       id="path674-2-2"
       inkscape:path-effect="#path-effect676-2-5"
       inkscape:original-d="m 26.693475,140.9615 c -6.30672,-4.36887 -12.61337,-8.73737 -18.9199585,-13.1055 -3.2980482,-6.01794 -6.5958964,-12.03529 -9.8937545,-18.05238 -5.6607766,-0.8105 -11.321265,-1.62059 -16.981795,-2.43035 -2.03874,2.94281 -4.07734,5.88585 -6.1159,8.82932 -3.91539,4.75381 -7.83055,9.50781 -11.74573,14.26227 -3.36368,-2.33028 -6.72716,-4.6601 -10.09064,-6.9896 -8.829552,-6.11639 -17.658668,-12.23216 -26.487912,-18.3477 -2.62122,3.78371 -5.24227,7.56762 -7.8633,11.35198 -2.78324,4.91584 -5.56631,9.83185 -8.34937,14.74833 -10.771815,-0.6177 -21.543205,-1.23501 -32.314755,-1.85196 -2.94325,-2.03904 -5.88631,-4.07763 -8.82938,-6.1159 -6.98778,2.00345 -13.97525,4.00719 -20.96278,6.01134 -2.62123,3.78369 -5.24228,7.56761 -7.86334,11.35197" />
  </g>
</svg>
