<?xml version="1.0" encoding="UTF-8" standalone="no"?>
<!-- Created with Inkscape (http://www.inkscape.org/) -->

<svg
   width="116.4503mm"
   height="23.637163mm"
   viewBox="0 0 116.4503 23.637163"
   version="1.1"
   id="svg445"
   inkscape:version="1.2 (dc2aeda, 2022-05-15)"
   sodipodi:docname="profileplazalogofull.svg"
   xmlns:inkscape="http://www.inkscape.org/namespaces/inkscape"
   xmlns:sodipodi="http://sodipodi.sourceforge.net/DTD/sodipodi-0.dtd"
   xmlns="http://www.w3.org/2000/svg"
   xmlns:svg="http://www.w3.org/2000/svg">
  <sodipodi:namedview
     id="namedview447"
     pagecolor="#ffffff"
     bordercolor="#000000"
     borderopacity="0.25"
     inkscape:showpageshadow="2"
     inkscape:pageopacity="0.0"
     inkscape:pagecheckerboard="0"
     inkscape:deskcolor="#d1d1d1"
     inkscape:document-units="mm"
     showgrid="false"
     inkscape:zoom="0.87920139"
     inkscape:cx="270.70021"
     inkscape:cy="102.36563"
     inkscape:window-width="1309"
     inkscape:window-height="456"
     inkscape:window-x="0"
     inkscape:window-y="25"
     inkscape:window-maximized="0"
     inkscape:current-layer="layer1" />
  <defs
     id="defs442">
    <inkscape:path-effect
       effect="bspline"
       id="path-effect593"
       is_visible="true"
       lpeversion="1"
       weight="33.333333"
       steps="2"
       helper_size="0"
       apply_no_weight="true"
       apply_with_weight="true"
       only_selected="false" />
    <inkscape:path-effect
       effect="bspline"
       id="path-effect589"
       is_visible="true"
       lpeversion="1"
       weight="33.333333"
       steps="2"
       helper_size="0"
       apply_no_weight="true"
       apply_with_weight="true"
       only_selected="false" />
    <inkscape:path-effect
       effect="bspline"
       id="path-effect533"
       is_visible="true"
       lpeversion="1"
       weight="33.333333"
       steps="2"
       helper_size="0"
       apply_no_weight="true"
       apply_with_weight="true"
       only_selected="false" />
    <inkscape:path-effect
       effect="bspline"
       id="path-effect529"
       is_visible="true"
       lpeversion="1"
       weight="33.333333"
       steps="2"
       helper_size="0"
       apply_no_weight="true"
       apply_with_weight="true"
       only_selected="false" />
    <inkscape:path-effect
       effect="bspline"
       id="path-effect525"
       is_visible="true"
       lpeversion="1"
       weight="33.333333"
       steps="2"
       helper_size="0"
       apply_no_weight="true"
       apply_with_weight="true"
       only_selected="false" />
    <inkscape:path-effect
       effect="bspline"
       id="path-effect521"
       is_visible="true"
       lpeversion="1"
       weight="33.333333"
       steps="2"
       helper_size="0"
       apply_no_weight="true"
       apply_with_weight="true"
       only_selected="false" />
    <inkscape:path-effect
       effect="bspline"
       id="path-effect517"
       is_visible="true"
       lpeversion="1"
       weight="33.333333"
       steps="2"
       helper_size="0"
       apply_no_weight="true"
       apply_with_weight="true"
       only_selected="false" />
    <inkscape:path-effect
       effect="bspline"
       id="path-effect513"
       is_visible="true"
       lpeversion="1"
       weight="33.333333"
       steps="2"
       helper_size="0"
       apply_no_weight="true"
       apply_with_weight="true"
       only_selected="false" />
    <inkscape:path-effect
       effect="bspline"
       id="path-effect509"
       is_visible="true"
       lpeversion="1"
       weight="33.333333"
       steps="2"
       helper_size="0"
       apply_no_weight="true"
       apply_with_weight="true"
       only_selected="false" />
    <inkscape:path-effect
       effect="bspline"
       id="path-effect505"
       is_visible="true"
       lpeversion="1"
       weight="33.333333"
       steps="2"
       helper_size="0"
       apply_no_weight="true"
       apply_with_weight="true"
       only_selected="false" />
    <inkscape:path-effect
       effect="bspline"
       id="path-effect505-2"
       is_visible="true"
       lpeversion="1"
       weight="33.333333"
       steps="2"
       helper_size="0"
       apply_no_weight="true"
       apply_with_weight="true"
       only_selected="false" />
    <inkscape:path-effect
       effect="bspline"
       id="path-effect529-9"
       is_visible="true"
       lpeversion="1"
       weight="33.333333"
       steps="2"
       helper_size="0"
       apply_no_weight="true"
       apply_with_weight="true"
       only_selected="false" />
    <inkscape:path-effect
       effect="bspline"
       id="path-effect589-1"
       is_visible="true"
       lpeversion="1"
       weight="33.333333"
       steps="2"
       helper_size="0"
       apply_no_weight="true"
       apply_with_weight="true"
       only_selected="false" />
  </defs>
  <g
     inkscape:label="Layer 1"
     inkscape:groupmode="layer"
     id="layer1"
     transform="translate(-23.354226,-9.4687562)">
    <path
       style="fill:#ff00ff;stroke-width:0.264583"
       d="m 23.67361,16.250706 c -0.50154,3.310397 -0.50154,8.426309 0.652209,11.034295 1.153749,2.607987 3.460879,2.708296 4.764788,1.253855 1.303908,-1.454442 1.604838,-4.463742 2.307178,-5.96854 0.70234,-1.504797 1.805748,-1.504797 3.260257,-1.705447 1.454509,-0.20065 3.260088,-0.60189 4.413555,-1.404311 1.153467,-0.80242 1.655017,-2.00614 1.45451,-3.310122 -0.200506,-1.303982 -1.103295,-2.708321 -3.611084,-3.761732 -2.50779,-1.053411 -6.6205,-1.755581 -9.178637,-1.354314 -2.558137,0.401268 -3.561237,1.905918 -4.062776,5.216316 z"
       id="path503"
       inkscape:path-effect="#path-effect505"
       inkscape:original-d="m 23.17207,14.444927 c 2.65e-4,5.116176 2.65e-4,10.232088 0,15.347735 2.307487,0.100579 4.614617,0.200888 6.921527,0.300935 0.301207,-3.009154 0.602139,-6.018454 0.902808,-9.028078 1.10372,2.64e-4 2.207128,2.64e-4 3.310298,0 1.805916,-0.400992 3.611496,-0.802232 5.416846,-1.203745 0.501835,-1.203503 1.003385,-2.407223 1.50468,-3.611231 -0.902562,-1.404132 -1.80535,-2.808471 -2.708423,-4.213104 C 34.407197,11.335506 30.294487,10.633336 26.18143,9.9308874 25.178555,11.435862 24.175455,12.940512 23.17207,14.444927 Z" />
    <path
       style="fill:#800080;stroke-width:0.264583"
       d="m 89.215154,16.816203 c -0.50154,3.310397 -0.50154,8.426309 0.652209,11.034295 1.153749,2.607987 3.460879,2.708296 4.764788,1.253855 1.303908,-1.454442 1.604838,-4.463742 2.307178,-5.96854 0.70234,-1.504797 1.805748,-1.504797 3.260251,-1.705446 1.45451,-0.20065 3.2601,-0.601892 4.41357,-1.404311 1.15346,-0.802419 1.65501,-2.006139 1.45451,-3.310121 -0.20051,-1.303982 -1.1033,-2.708321 -3.61109,-3.761733 -2.507793,-1.053413 -6.620503,-1.755583 -9.17864,-1.354315 -2.558137,0.401268 -3.561237,1.905918 -4.062776,5.216316 z"
       id="path503-6"
       inkscape:path-effect="#path-effect505-2"
       inkscape:original-d="m 88.713614,15.010424 c 2.65e-4,5.116176 2.65e-4,10.232088 0,15.347735 2.307487,0.100579 4.614617,0.200888 6.921527,0.300935 0.301207,-3.009154 0.602139,-6.018454 0.902808,-9.028078 1.10372,2.64e-4 2.207128,2.64e-4 3.310298,0 1.805913,-0.400992 3.611503,-0.802232 5.416853,-1.203745 0.50183,-1.203503 1.00338,-2.407223 1.50468,-3.611231 -0.90256,-1.404132 -1.80535,-2.808471 -2.70843,-4.213104 -4.112609,-0.701933 -8.225319,-1.404103 -12.338376,-2.106552 -1.002875,1.504975 -2.005975,3.009625 -3.00936,4.51404 z" />
    <path
       style="fill:#800080;stroke-width:0.264583"
       d="m 30.043543,19.611161 c -0.351229,-1.454644 0.451268,-2.558076 1.504728,-2.708464 1.053461,-0.150388 2.357492,0.652092 3.009365,1.554947 0.651874,0.902855 0.651874,1.905955 1.30392,1.805494 0.652046,-0.100461 1.956076,-1.304182 3.561198,-2.006375 1.605122,-0.702193 3.511014,-0.902813 5.116056,-0.852606 1.605041,0.05021 2.90907,0.351137 3.611114,1.053439 0.702044,0.702303 0.802355,1.805712 0.451334,2.457576 -0.35102,0.651864 -1.153501,0.852484 -1.955938,0.802408 -0.802437,-0.05008 -1.604917,-0.351006 -2.608101,-0.401238 -1.003184,-0.05023 -2.206903,0.150388 -3.310453,0.752288 -1.10355,0.601899 -2.10665,1.605 -2.60821,2.909205 -0.50156,1.304205 -0.50156,2.909165 -1.002977,3.611245 -0.501416,0.702079 -1.504518,0.501458 -2.206813,-0.300925 -0.702295,-0.802383 -1.103535,-2.206723 -2.05644,-3.811747 -0.952904,-1.605023 -2.457555,-3.410603 -2.808783,-4.865247 z"
       id="path507"
       inkscape:path-effect="#path-effect509"
       inkscape:original-d="m 28.889852,19.259902 c 0.802762,-1.103167 1.605259,-2.206599 2.407489,-3.310295 1.304345,0.802776 2.608376,1.605256 3.912169,2.407488 2.64e-4,1.003404 2.64e-4,2.006504 0,3.009359 1.304345,-1.203503 2.608376,-2.407223 3.912166,-3.611231 1.90623,-0.200364 3.812122,-0.400984 5.717783,-0.601872 1.304348,0.301206 2.608376,0.602136 3.912169,0.902808 0.100579,1.103718 0.200887,2.207128 0.300937,3.310295 -0.802249,0.200893 -1.60473,0.401513 -2.407489,0.601872 -0.802248,-0.300677 -1.604727,-0.601607 -2.407489,-0.902808 -1.203502,0.200893 -2.407221,0.401513 -3.611231,0.601872 -1.002874,1.003405 -2.005976,2.006504 -3.00936,3.009359 2.64e-4,1.605291 2.64e-4,3.210251 0,4.814978 -1.002874,-0.200364 -2.005976,-0.400984 -3.009358,-0.601875 -0.400992,-1.40413 -0.802233,-2.80847 -1.203746,-4.213103 -1.504444,-1.805386 -3.009095,-3.610966 -4.51404,-5.416847 z" />
    <path
       style="fill:#ff00ff;stroke-width:0.264583"
       d="m 45.190668,17.755247 c -1.354362,0.902832 -2.658418,2.708447 -3.360594,4.363709 -0.702176,1.655262 -0.802485,3.15991 -0.100118,4.263301 0.702366,1.103391 2.207015,1.80556 3.811997,2.156577 1.604983,0.351018 3.310252,0.351018 4.463687,-0.250813 1.153435,-0.60183 1.755295,-1.805549 2.106405,-3.059394 0.351111,-1.253845 0.45142,-2.557874 0.501585,-3.611147 0.05016,-1.053273 0.05016,-1.855753 -0.501407,-2.608134 -0.551573,-0.752381 -1.654983,-1.454551 -2.908918,-1.805741 -1.253935,-0.35119 -2.658274,-0.35119 -4.012637,0.551642 z"
       id="path511"
       inkscape:path-effect="#path-effect513"
       inkscape:original-d="m 45.140397,16.852415 c -1.303792,1.80588 -2.607847,3.611496 -3.912169,5.416847 -0.100049,1.504975 -0.200358,3.009623 -0.300934,4.514039 1.504974,0.702463 3.009622,1.404633 4.514038,2.106551 1.705604,2.65e-4 3.410873,2.65e-4 5.115912,0 0.602149,-1.203502 1.20401,-2.407221 1.805617,-3.611231 0.100578,-1.303817 0.200887,-2.607846 0.300934,-3.912167 2.65e-4,-0.802247 2.65e-4,-1.604727 0,-2.407488 -1.103188,-0.701933 -2.206598,-1.404103 -3.310294,-2.106551 -1.404131,2.64e-4 -2.80847,2.64e-4 -4.213104,0 z" />
    <path
       style="fill:#800080;stroke-width:0.264583"
       d="m 50.356643,28.940291 c 0.100335,1.554853 0.30096,2.858909 1.203901,3.560954 0.902941,0.702044 2.507901,0.802354 3.661333,0.250658 1.153431,-0.551696 1.8556,-1.755416 2.206715,-3.159707 0.351116,-1.404292 0.351116,-3.009253 1.304238,-3.761717 0.953122,-0.752464 2.859011,-0.652154 4.313433,-0.953123 1.454423,-0.300969 2.457522,-1.003138 2.959055,-1.85565 0.501534,-0.852511 0.501534,-1.855611 1.21e-4,-2.507727 -0.501413,-0.652116 -1.504512,-0.953046 -2.708295,-1.103561 -1.203783,-0.150515 -2.608122,-0.150515 -3.761707,-0.200656 -1.153585,-0.05014 -2.056375,-0.150451 -2.507924,-0.702061 -0.451548,-0.55161 -0.451548,-1.554709 -0.150616,-2.407489 0.300932,-0.85278 0.902792,-1.554951 1.755609,-1.855884 0.852816,-0.300933 1.956223,-0.200623 3.109812,-0.15048 1.15359,0.05014 2.35731,0.05014 2.858756,-0.702064 0.501446,-0.752208 0.300825,-2.256858 -0.702194,-3.059494 -1.003018,-0.8026371 -2.808599,-0.9029472 -4.513943,-0.8528112 -1.705344,0.050136 -3.310304,0.2507561 -4.815124,1.2037662 -1.504819,0.953009 -2.909159,2.658278 -3.611332,4.464032 -0.702173,1.805753 -0.702173,3.711642 -0.702173,5.166176 0,1.454534 0,2.457634 0,3.86202 0,1.404386 0,3.209966 0.100335,4.764818 z"
       id="path515"
       inkscape:path-effect="#path-effect517"
       inkscape:original-d="m 50.256308,29.190791 c 0.20089,1.304319 0.401513,2.608376 0.601874,3.912166 1.605288,0.100579 3.210248,0.20089 4.814975,0.300937 0.702463,-1.203505 1.404633,-2.407224 2.106551,-3.611232 2.65e-4,-1.604758 2.65e-4,-3.209719 0,-4.814976 1.906231,0.100579 3.81212,0.200889 5.717784,0.300936 1.003405,-0.701933 2.006504,-1.404103 3.00936,-2.106551 2.64e-4,-1.002876 2.64e-4,-2.005976 0,-3.00936 -1.002877,-0.300678 -2.005976,-0.601608 -3.00936,-0.902808 -1.404131,2.64e-4 -2.80847,2.64e-4 -4.213104,0 -0.902562,-0.10005 -1.805352,-0.20036 -2.708423,-0.300936 2.65e-4,-1.002876 2.65e-4,-2.005975 0,-3.00936 0.602147,-0.701933 1.204008,-1.404103 1.805615,-2.106552 1.10372,0.100579 2.207127,0.200889 3.310297,0.300936 1.204031,2.65e-4 2.407751,2.65e-4 3.611232,0 C 65.102745,12.639546 64.902125,11.134896 64.701235,9.6299514 62.895848,9.5299019 61.090267,9.429592 59.284388,9.3290154 57.67963,9.529908 56.07467,9.730528 54.469414,9.9308874 53.06528,11.63649 51.660941,13.34176 50.256308,15.046799 c 2.64e-4,1.906231 2.64e-4,3.81212 0,5.717784 2.64e-4,1.003404 2.64e-4,2.006504 0,3.009359 2.64e-4,1.805917 2.64e-4,3.611497 0,5.416849 z" />
    <path
       style="fill:#ff00ff;stroke-width:0.264583"
       d="m 63.898776,11.385458 c -0.601964,0.852755 -1.103524,2.257123 -1.203746,3.360647 -0.100222,1.103524 0.200709,1.906005 0.85282,2.307093 0.652111,0.401088 1.65521,0.401088 2.4074,-1.32e-4 0.75219,-0.401221 1.25374,-1.203701 1.604836,-2.106452 0.351096,-0.902752 0.551716,-1.905852 0.250932,-2.75849 -0.300783,-0.852638 -1.103263,-1.554807 -1.855686,-1.755578 -0.752423,-0.200772 -1.454592,0.100157 -2.056556,0.952912 z"
       id="path523"
       inkscape:path-effect="#path-effect525"
       inkscape:original-d="m 63.798426,10.833695 c -0.501295,1.404632 -1.002855,2.809 -1.50468,4.213103 0.301207,0.802777 0.602139,1.605257 0.902809,2.407488 1.003406,2.65e-4 2.006505,2.65e-4 3.00936,0 0.501835,-0.802247 1.003385,-1.604727 1.50468,-2.407488 0.200893,-1.002875 0.401513,-2.005975 0.601872,-3.009359 -0.802249,-0.701934 -1.604727,-1.404104 -2.407489,-2.1065515 -0.701932,0.3012055 -1.404101,0.6021355 -2.106552,0.9028075 z" />
    <path
       style="fill:#ff00ff;stroke-width:0.264583"
       d="m 63.096277,22.971733 c 0.100278,1.60497 0.100278,3.912146 0.100278,5.667618 0,1.755472 0,2.959192 0.351231,3.560931 0.351232,0.601739 1.053402,0.601739 1.906064,0.601739 0.852662,0 1.855761,0 2.507636,-0.60179 0.651875,-0.60179 0.952806,-1.805509 1.103297,-2.908913 0.150492,-1.103403 0.150492,-2.106504 0.150492,-3.360418 0,-1.253915 0,-2.758565 -0.150411,-3.912134 -0.150412,-1.153569 -0.451342,-1.956048 -1.053137,-2.407596 -0.601794,-0.451549 -1.504584,-0.551859 -2.457602,-0.501737 -0.953017,0.05012 -1.956118,0.250741 -2.357432,0.80264 -0.401313,0.5519 -0.200693,1.45469 -0.100416,3.05966 z"
       id="path519"
       inkscape:path-effect="#path-effect521"
       inkscape:original-d="m 63.196555,22.269262 c 2.64e-4,2.307441 2.64e-4,4.614617 0,6.921527 2.64e-4,1.204034 2.64e-4,2.407754 0,3.611232 0.702463,2.65e-4 1.404633,2.65e-4 2.106554,0 1.003403,2.65e-4 2.006502,2.65e-4 3.009357,0 0.301207,-1.203502 0.602139,-2.407221 0.902809,-3.611232 2.65e-4,-1.002874 2.65e-4,-2.005975 0,-3.00936 2.65e-4,-1.504444 2.65e-4,-3.009094 0,-4.514039 -0.300678,-0.802247 -0.601607,-1.604727 -0.902809,-2.407487 -0.902559,-0.10005 -1.805349,-0.20036 -2.708423,-0.300936 -1.002874,0.200892 -2.005975,0.401512 -3.00936,0.601871 0.200893,0.903091 0.401513,1.805881 0.601872,2.708424 z" />
    <path
       style="fill:#800080;stroke-width:0.264583"
       d="m 67.058641,13.843176 c -0.351125,2.106726 0.150435,5.717958 0.802495,8.927979 0.65206,3.210022 1.45454,6.018702 2.558073,7.422912 1.103533,1.40421 2.507875,1.40421 3.460684,0.75224 0.952808,-0.65197 1.454358,-1.956 1.554725,-3.3603 0.100367,-1.404301 -0.200564,-2.908951 -0.752263,-4.814896 -0.551699,-1.905944 -1.354178,-4.213075 -2.206819,-6.319645 -0.85264,-2.106571 -1.75543,-4.012461 -2.808741,-4.664668 -1.053311,-0.652207 -2.25703,-0.05035 -2.608154,2.056378 z"
       id="path527"
       inkscape:path-effect="#path-effect529"
       inkscape:original-d="m 66.205916,12.338375 c 0.501822,3.611496 1.003382,7.222728 1.504678,10.833696 0.802777,2.809056 1.605258,5.617736 2.407488,8.426206 1.40466,2.64e-4 2.809002,2.64e-4 4.213104,0 0.501835,-1.303817 1.003384,-2.607847 1.50468,-3.912167 -0.300678,-1.504445 -0.601607,-3.009095 -0.902809,-4.514039 -0.802246,-2.306958 -1.604727,-4.614088 -2.407486,-6.921528 -0.902562,-1.905701 -1.805353,-3.811591 -2.708423,-5.717784 -1.203505,0.602149 -2.407224,1.204009 -3.611232,1.805616 z" />
    <path
       style="fill:#ff00ff;stroke-width:0.264583"
       d="m 75.785929,23.122072 c 0.551762,-0.551873 2.257065,-0.551873 3.862073,-0.551873 1.605007,0 3.109658,0 4.012309,-0.401184 0.90265,-0.401184 1.203581,-1.203664 1.303937,-2.006094 0.100357,-0.80243 4.7e-5,-1.60491 -0.601698,-2.156732 -0.601745,-0.551823 -1.705155,-0.852753 -3.00925,-1.003263 -1.304095,-0.150511 -2.808746,-0.150511 -4.263382,0.30088 -1.454637,0.451392 -2.858976,1.354181 -3.661525,2.457757 -0.802548,1.103576 -1.003168,2.407606 -1.053295,3.711707 -0.05013,1.304102 0.05018,2.608132 0.602049,3.611222 0.551865,1.00309 1.554968,1.705262 2.758731,2.256921 1.203764,0.551659 2.608103,0.952898 3.711478,1.05314 1.103376,0.100242 1.905857,-0.100378 2.357153,-0.551655 0.451295,-0.451276 0.551605,-1.153447 0.100364,-1.655073 -0.45124,-0.501627 -1.454339,-0.802556 -2.457467,-1.153635 -1.003127,-0.35108 -2.006228,-0.75232 -2.808804,-1.504577 -0.802575,-0.752257 -1.404435,-1.855667 -0.852673,-2.407541 z"
       id="path531"
       inkscape:path-effect="#path-effect533"
       inkscape:original-d="m 74.632123,22.570199 c 1.705568,2.64e-4 3.410871,2.64e-4 5.115912,0 1.504974,2.64e-4 3.009625,2.64e-4 4.514038,0 0.301207,-0.802248 0.602139,-1.604728 0.902809,-2.407488 -0.10005,-0.802248 -0.200359,-1.604728 -0.300935,-2.407488 -1.103191,-0.300677 -2.206601,-0.601607 -3.310297,-0.902808 -1.504445,2.65e-4 -3.009096,2.65e-4 -4.51404,0 -1.404131,0.90309 -2.80847,1.80588 -4.213104,2.708424 -0.200363,1.304346 -0.400981,2.608376 -0.601871,3.912167 0.100578,1.304347 0.20089,2.608377 0.300937,3.912168 1.003403,0.702461 2.006505,1.404634 3.00936,2.106552 1.40466,0.401521 2.808999,0.802759 4.213103,1.203743 0.802775,-0.200363 1.605256,-0.400984 2.407486,-0.601871 0.100579,-0.701934 0.200891,-1.404104 0.300937,-2.106552 -1.002876,-0.300678 -2.005975,-0.601607 -3.00936,-0.902808 -1.002874,-0.400991 -2.005975,-0.802231 -3.00936,-1.203744 -0.601617,-1.103189 -1.203478,-2.206599 -1.805615,-3.310295 z" />
    <path
       style="fill:#ff00ff;stroke-width:0.264583"
       d="m 101.78967,12.85467 c -0.35113,2.106726 0.15043,5.717958 0.80249,8.927979 0.65206,3.210022 1.45454,6.018701 2.55808,7.422911 1.10353,1.40421 2.50787,1.40421 3.46068,0.752239 0.95281,-0.651971 1.45436,-1.956001 1.55472,-3.3603 0.10037,-1.404299 -0.20056,-2.90895 -0.75225,-4.814895 -0.5517,-1.905945 -1.35418,-4.213075 -2.20682,-6.319645 -0.85264,-2.10657 -1.75543,-4.012461 -2.80875,-4.664668 -1.05331,-0.652206 -2.25703,-0.05035 -2.60815,2.056379 z"
       id="path527-4"
       inkscape:path-effect="#path-effect529-9"
       inkscape:original-d="m 100.93694,11.349868 c 0.50183,3.611496 1.00339,7.222728 1.50468,10.833696 0.80278,2.809056 1.60526,5.617736 2.40749,8.426206 1.40466,2.64e-4 2.809,2.64e-4 4.2131,0 0.50184,-1.303817 1.00339,-2.607847 1.50468,-3.912167 -0.30067,-1.504445 -0.6016,-3.009095 -0.9028,-4.514039 -0.80225,-2.306958 -1.60473,-4.614088 -2.40749,-6.921528 -0.90256,-1.905701 -1.80535,-3.811591 -2.70842,-5.7177842 -1.20351,0.6021492 -2.40723,1.2040092 -3.61124,1.8056162 z" />
    <path
       style="fill:#800080;stroke-width:0.264583"
       d="m 111.7979,18.056113 c -1.25391,0.300933 -2.35734,0.601868 -3.1098,1.454646 -0.75245,0.852778 -1.15369,2.257118 -1.35429,3.260289 -0.2006,1.003171 -0.2006,1.605031 0.10046,2.257076 0.30107,0.652044 0.90293,1.354213 1.80577,1.755332 0.90284,0.40112 2.10656,0.50143 3.00926,0.350925 0.90271,-0.150505 1.50456,-0.551747 1.90576,-1.303971 0.4012,-0.752224 0.60182,-1.855636 1.20387,-2.006082 0.60204,-0.150447 1.60514,0.652034 2.3073,1.304093 0.70216,0.65206 1.10341,1.153615 1.55467,0.852582 0.45126,-0.301033 0.95281,-1.404443 0.95292,-2.407477 1.1e-4,-1.003033 -0.50144,-1.905823 -1.3039,-2.959129 -0.80247,-1.053307 -1.90588,-2.257026 -3.15982,-2.708586 -1.25395,-0.451561 -2.65829,-0.150631 -3.9122,0.150302 z"
       id="path587"
       inkscape:path-effect="#path-effect589"
       inkscape:original-d="m 111.64725,18.056158 c -1.10317,0.301201 -2.2066,0.602137 -3.3103,0.902809 -0.40099,1.40466 -0.80223,2.809 -1.20374,4.213103 2.6e-4,0.602149 2.6e-4,1.204009 0,1.805616 0.60215,0.702464 1.20401,1.404633 1.80562,2.106552 1.20403,0.100579 2.40775,0.200887 3.61123,0.300937 0.60215,-0.400992 1.20401,-0.802233 1.80561,-1.203746 0.20089,-1.103188 0.40152,-2.206598 0.60187,-3.310295 1.00341,0.802777 2.00651,1.605257 3.00936,2.407489 0.40152,0.501833 0.80277,1.003385 1.20375,1.504678 0.50183,-1.103188 1.00338,-2.206598 1.50468,-3.310295 -0.50131,-0.902561 -1.00286,-1.805351 -1.50468,-2.708424 -1.10319,-1.203503 -2.2066,-2.407223 -3.3103,-3.611231 -1.40413,0.301206 -2.80847,0.602136 -4.2131,0.902807 z" />
    <path
       style="fill:#ff00ff;stroke-width:0.264583"
       d="m 118.81973,17.203466 c 1.75552,-0.351078 4.36363,-0.652014 6.31974,-0.802468 1.95611,-0.150455 3.26015,-0.150455 3.96222,0.250947 0.70207,0.401402 0.80238,1.203883 0.0501,1.956057 -0.75231,0.752173 -2.35727,1.454344 -3.96229,2.25685 -1.60503,0.802507 -3.20999,1.705296 -3.56097,2.507937 -0.35098,0.802642 0.55181,1.504811 2.20696,1.805628 1.65516,0.300816 4.0626,0.200506 5.61744,0.150356 1.55485,-0.05015 2.25702,-0.05015 2.50764,0.401359 0.25063,0.451511 0.05,1.354301 -0.95298,1.805608 -1.00298,0.451306 -2.80856,0.451306 -4.6142,0.451306 -1.80563,0 -3.61121,0 -5.01558,-0.451287 -1.40437,-0.451287 -2.40747,-1.354077 -2.85902,-2.40737 -0.45155,-1.053294 -0.35124,-2.257014 0.45132,-3.310444 0.80256,-1.05343 2.3072,-1.956215 2.25712,-2.357447 -0.0501,-0.401232 -1.65505,-0.300923 -2.90892,-0.401177 -1.25388,-0.100254 -2.15667,-0.401185 -2.15675,-0.752361 -9e-5,-0.351176 0.9027,-0.752416 2.65821,-1.103494 z"
       id="path591"
       inkscape:path-effect="#path-effect593"
       inkscape:original-d="m 117.9669,17.153351 c 2.60838,-0.300672 5.21649,-0.601608 7.82434,-0.902808 1.30434,2.64e-4 2.60838,2.64e-4 3.91217,0 0.10057,0.802776 0.20089,1.605256 0.30093,2.407488 -1.60476,0.702462 -3.20972,1.404632 -4.81497,2.106552 -1.60476,0.90309 -3.20972,1.80588 -4.81498,2.708423 0.90309,0.702463 1.80588,1.404633 2.70843,2.106552 2.4078,-0.100049 4.81524,-0.200359 7.22246,-0.300936 0.70246,2.65e-4 1.40463,2.65e-4 2.10655,0 -0.20036,0.90309 -0.40098,1.80588 -0.60187,2.708424 -1.80539,2.65e-4 -3.61097,2.65e-4 -5.41685,0 -1.80539,2.65e-4 -3.61097,2.65e-4 -5.41685,0 -1.00287,-0.902562 -2.00597,-1.805352 -3.00936,-2.708424 0.10058,-1.203503 0.20089,-2.407223 0.30094,-3.611232 1.50498,-0.902561 3.00962,-1.805351 4.51404,-2.708423 -1.60476,0.100578 -3.20972,0.200888 -4.81498,0.300936 -0.90256,-0.300678 -1.80535,-0.601608 -2.70842,-0.902808 0.90309,-0.400992 1.80588,-0.802232 2.70842,-1.203744 z" />
    <path
       style="fill:#800080;stroke-width:0.264583"
       d="m 131.42861,19.090957 c -1.25391,0.300933 -2.35734,0.601868 -3.1098,1.454646 -0.75245,0.852778 -1.15369,2.257118 -1.35429,3.260289 -0.2006,1.003171 -0.2006,1.605031 0.10046,2.257076 0.30107,0.652044 0.90293,1.354213 1.80577,1.755332 0.90284,0.40112 2.10656,0.50143 3.00926,0.350925 0.90271,-0.150505 1.50456,-0.551747 1.90576,-1.303971 0.4012,-0.752224 0.60182,-1.855636 1.20387,-2.006082 0.60204,-0.150447 1.60514,0.652034 2.3073,1.304093 0.70216,0.65206 1.10341,1.153615 1.55467,0.852582 0.45126,-0.301033 0.95281,-1.404443 0.95292,-2.407477 1.1e-4,-1.003033 -0.50144,-1.905823 -1.3039,-2.959129 -0.80247,-1.053307 -1.90588,-2.257026 -3.15982,-2.708586 -1.25395,-0.451561 -2.65829,-0.150631 -3.9122,0.150302 z"
       id="path587-3"
       inkscape:path-effect="#path-effect589-1"
       inkscape:original-d="m 131.27796,19.091002 c -1.10317,0.301201 -2.2066,0.602137 -3.3103,0.902809 -0.40099,1.40466 -0.80223,2.809 -1.20374,4.213103 2.6e-4,0.602149 2.6e-4,1.204009 0,1.805616 0.60215,0.702464 1.20401,1.404633 1.80562,2.106552 1.20403,0.100579 2.40775,0.200887 3.61123,0.300937 0.60215,-0.400992 1.20401,-0.802233 1.80561,-1.203746 0.20089,-1.103188 0.40152,-2.206598 0.60187,-3.310295 1.00341,0.802777 2.00651,1.605257 3.00936,2.407489 0.40152,0.501833 0.80277,1.003385 1.20375,1.504678 0.50183,-1.103188 1.00338,-2.206598 1.50468,-3.310295 -0.50131,-0.902561 -1.00286,-1.805351 -1.50468,-2.708424 -1.10319,-1.203503 -2.2066,-2.407223 -3.3103,-3.611231 -1.40413,0.301206 -2.80847,0.602136 -4.2131,0.902807 z" />
  </g>
</svg>
